<svg xmlns="http://www.w3.org/2000/svg" viewBox="0 0 200 200">
  <rect width="200" height="200" fill="#f0f0f0"/>
  <g transform="translate(20, 20)">
    <!-- Grid lines -->
    <g stroke="#ccc" stroke-width="0.5">
      <line x1="0" y1="0" x2="0" y2="160"/>
      <line x1="40" y1="0" x2="40" y2="160"/>
      <line x1="80" y1="0" x2="80" y2="160"/>
      <line x1="120" y1="0" x2="120" y2="160"/>
      <line x1="160" y1="0" x2="160" y2="160"/>
      <line x1="0" y1="0" x2="160" y2="0"/>
      <line x1="0" y1="40" x2="160" y2="40"/>
      <line x1="0" y1="80" x2="160" y2="80"/>
      <line x1="0" y1="120" x2="160" y2="120"/>
      <line x1="0" y1="160" x2="160" y2="160"/>
    </g>
    
    <!-- X and Y axis -->
    <g stroke="#333" stroke-width="2">
      <line x1="0" y1="160" x2="160" y2="160"/>
      <line x1="0" y1="0" x2="0" y2="160"/>
    </g>
    
    <!-- Data lines -->
    <g fill="none" stroke-width="3">
      <path d="M0,160 Q40,80 80,120 T160,40" stroke="#ff6b6b"/>
      <path d="M0,120 Q40,160 80,80 T160,0" stroke="#4ecdc4"/>
      <path d="M0,80 Q40,40 80,100 T160,60" stroke="#45b7d1"/>
    </g>
    
    <!-- Data points -->
    <g fill="#333">
      <circle cx="0" cy="160" r="4"/>
      <circle cx="80" cy="120" r="4"/>
      <circle cx="160" cy="40" r="4"/>
      <circle cx="0" cy="120" r="4"/>
      <circle cx="80" cy="80" r="4"/>
      <circle cx="160" cy="0" r="4"/>
      <circle cx="0" cy="80" r="4"/>
      <circle cx="80" cy="100" r="4"/>
      <circle cx="160" cy="60" r="4"/>
    </g>
  </g>
  <text x="100" y="190" font-size="12" text-anchor="middle" fill="#333">virus.sucks plotter</text>
</svg>
